HIERARCHY
ROOT HipCenter
{
    OFFSET 0.0 0.0 -0.0
    CHANNELS 6 Xposition Yposition Zposition Zrotation Xrotation Yrotation
    JOINT Spine
    {
        OFFSET 0.0 8.075536727905273 0.0
        CHANNELS 3 Zrotation Xrotation Yrotation
        JOINT ShoulderCenter
        {
            OFFSET 0.0 35.180057525634766 0.0
            CHANNELS 3 Zrotation Xrotation Yrotation
            JOINT LeftShoulder
            {
                OFFSET 20.88031005859375 0.0 0.0
                CHANNELS 3 Zrotation Xrotation Yrotation
                JOINT LeftElbow
                {
                    OFFSET 25.98353385925293 0.0 0.0
                    CHANNELS 3 Zrotation Xrotation Yrotation
                    JOINT LeftWrist
                    {
                        OFFSET 23.957508087158203 0.0 0.0
                        CHANNELS 3 Zrotation Xrotation Yrotation
                        JOINT LeftHand
                        {
                            OFFSET 6.268749237060547 0.0 0.0
                            CHANNELS 3 Zrotation Xrotation Yrotation
                            End Site
                            {
                                OFFSET 2.5074992179870605 0.0 0.0
                            }
                        }
                    }
                }
            }
            JOINT RightShoulder
            {
                OFFSET -20.88031005859375 0.0 0.0
                CHANNELS 3 Zrotation Xrotation Yrotation
                JOINT RightElbow
                {
                    OFFSET -25.98353385925293 0.0 0.0
                    CHANNELS 3 Zrotation Xrotation Yrotation
                    JOINT RightWrist
                    {
                        OFFSET -23.957508087158203 0.0 0.0
                        CHANNELS 3 Zrotation Xrotation Yrotation
                        JOINT RightHand
                        {
                            OFFSET -6.268749237060547 0.0 0.0
                            CHANNELS 3 Zrotation Xrotation Yrotation
                            End Site
                            {
                                OFFSET -2.5074992179870605 0.0 0.0
                            }
                        }
                    }
                }
            }
            End Site
            {
                OFFSET 0.0 14.072021484375 0.0
            }
        }
    }
    JOINT LeftHip
    {
        OFFSET 10.958733558654785 0.0 0.0
        CHANNELS 3 Zrotation Xrotation Yrotation
        JOINT LeftKnee
        {
            OFFSET 0.0 -47.02344512939453 0.0
            CHANNELS 3 Zrotation Xrotation Yrotation
            JOINT LeftAnkle
            {
                OFFSET 0.0 -36.422943115234375 0.0
                CHANNELS 3 Zrotation Xrotation Yrotation
                JOINT LeftFoot
                {
                    OFFSET 0.0 -7.750168800354004 0.0
                    CHANNELS 3 Zrotation Xrotation Yrotation
                    End Site
                    {
                        OFFSET 0.0 0.0 3.1000678539276123
                    }
                }
            }
        }
    }
    JOINT RightHip
    {
        OFFSET -10.958733558654785 0.0 0.0
        CHANNELS 3 Zrotation Xrotation Yrotation
        JOINT RightKnee
        {
            OFFSET 0.0 -47.02344512939453 0.0
            CHANNELS 3 Zrotation Xrotation Yrotation
            JOINT RightAnkle
            {
                OFFSET 0.0 -36.422943115234375 0.0
                CHANNELS 3 Zrotation Xrotation Yrotation
                JOINT RightFoot
                {
                    OFFSET 0.0 -7.750168800354004 0.0
                    CHANNELS 3 Zrotation Xrotation Yrotation
                    End Site
                    {
                        OFFSET 0.0 0.0 3.1000678539276123
                    }
                }
            }
        }
    }
}
MOTION
Frames: 7
Frame Time: 0.03333333333333333
-6.5376996994018555 -10.311200141906738 -286.15020751953125 5.994586502383979 -39.57562067869139 -171.7687200666981 -1.5112898624547537 -42.06882851641037 -0.1928478710039746 -1.0266573736636445e-07 1.7308220418609012e-08 -2.1046167390336894 -70.07228501013445 -46.706047370039805 13.144437846706213 1.979087769412498e-06 6.6236621209685386e-06 12.028339556759992 -4.613070831121936e-07 -24.89057030323657 1.9569708961196053 -3.531125038440127e-31 -3.1805546814635168e-15 -1.2722218725854067e-14 77.59824589247818 -30.245891467387548 -2.8737769061677176 -6.915414908883557e-07 2.0892178514234325e-06 -22.64155557151749 -179.99998651017017 -81.95558647097653 170.67535084241365 8.827812596100317e-32 3.1805546814635168e-15 -3.1805546814635168e-15 1.6695114558054678 -53.29192547030359 22.472334882461453 -2.060592683648118 10.342741710555025 -8.830608589537032 36.78953540726424 22.217944568460883 -58.30815060060396 -3.1805546814635168e-15 -2.2069531490250793e-32 7.951386703658792e-16 -1.7484821975018934 -50.333306511459995 -17.792395123994467 3.6892849558802894 4.880285676890755 3.9721598909897637 -35.239280523082876 36.1639427420356 64.51728860358662 0.0 0.0 -4.373262687012335e-15
-6.54449987411499 -10.312600135803223 -286.1438903808594 5.986302919728037 -39.589526087061735 -171.79609468247634 -1.5125630195351714 -42.07585560643925 -0.19751244176777907 3.651673512796458e-08 1.6273212190251167e-07 -2.1032231018018916 -70.09843210352206 -46.64036909731543 13.13246446749202 -9.179733287759687e-07 1.1903942520015564e-06 11.983555837448755 -1.914844946129803e-06 -25.964271031670343 2.094826471956792 0.0 0.0 -3.1805546814635168e-15 77.61075925157532 -30.227567005100656 -2.83137111218323 2.6132020779442046e-06 -2.8338972535148823e-06 -22.68341304132512 -179.99996967406412 -82.14519082185267 170.70274626753107 -6.3611093629270335e-15 3.1805546814635168e-15 1.7655625192200634e-31 1.6770110167154009 -53.30618446382479 22.473141613942776 -2.0505561112017703 10.347359587553392 -8.836761326207217 36.73549121478677 22.2054852340189 -58.198830823351905 4.7708320221952736e-15 6.361109362927032e-15 -3.1805546814635164e-15 -1.7147517741319531 -50.349143208698216 -17.764157229203605 3.6477615836517527 4.8630312717930275 3.960684516967069 -35.39380715747891 36.16952923113084 64.77883494277448 0.0 0.0 2.3854160110976384e-15
-6.552799701690674 -10.314800262451172 -286.13751220703125 5.973118653970512 -39.6005715445237 -171.8228607534724 -1.5148004569928568 -42.08033123236302 -0.2029310854442202 1.8977915638170577e-07 5.0409490912653876e-08 -2.1024326042377868 -70.14773672048895 -46.51909417737138 13.104341348996256 8.733695387894674e-07 4.6522960239213695e-07 11.890799527940267 -7.745890485947505e-07 -26.166953363283653 2.410155268469217 -3.180554681463516e-15 -2.648343778830095e-31 9.541664044390547e-15 77.61892175049897 -30.22671797833311 -2.7901589467811427 1.3685068249011438e-06 1.4951044029607187e-06 -22.714054465790426 -179.99999697571502 -82.32120845536987 170.75538312398612 6.3611093629270335e-15 -3.1805546814635168e-15 -6.3611093629270335e-15 1.6714032617569066 -53.317275453961564 22.45939652791849 -2.037094484135863 10.352592589880883 -8.84235280251879 36.585695101093535 22.803637017005112 -58.5501843757405 0.0 0.0 -1.1927080055488188e-15 -1.6977654691724295 -50.360627049499094 -17.750330613718855 3.620607470896164 4.849275476180193 3.9516345247774116 -35.528396059432 36.15982401612793 64.9986417486335 0.0 0.0 -3.975693351829396e-16
-6.562499523162842 -10.317299842834473 -286.1310119628906 5.952410156973083 -39.61180125127345 -171.85508550492824 -1.5182947950142744 -42.08629439953463 -0.20843002612882813 -7.717216782489462e-08 -3.551451853408542e-07 -2.1019167945407764 -70.20575882204241 -46.38058207849626 13.070267094824498 -2.32161541993024e-06 1.1165768499781814e-06 11.769392126784354 2.116886455613193e-06 -27.28621137693919 2.7565191556813944 3.1805546814635176e-15 8.827812596100317e-32 3.1805546814635176e-15 77.62597627552303 -30.222275119933016 -2.7439355373315917 1.1678217541467063e-06 1.758322833073304e-06 -22.746620198225404 -179.99999290808307 -82.46300369450238 170.8318861396822 -6.361109362927033e-15 -3.180554681463516e-15 -9.541664044390549e-15 1.6571899154748848 -53.32615598313489 22.430986211779672 -2.014104804208151 10.347989081506288 -8.841249584440016 36.36720842096588 23.465396899334184 -58.82715727408698 0.0 0.0 0.0 -1.6938254940355515 -50.3721736535435 -17.74510718594851 3.6035615011291826 4.839928705017482 3.9460192406589 -35.68187385302339 36.111851516706594 65.22555847564017 4.4139062980501586e-32 -6.3611093629270335e-15 7.951386703658792e-16
-6.57349967956543 -10.320899963378906 -286.12469482421875 5.9172770735558355 -39.61808196542648 -171.89345865869532 -1.528960519370346 -42.0945480207537 -0.21792446866478055 7.44112949297358e-08 -2.738737652759136e-08 -2.116178539844055 -70.21880169627246 -46.38637142144975 13.06249707395721 -1.8440613114437853e-06 5.2034723794990975e-08 11.521919232848369 -7.332747646268606e-06 -57.450933016033076 2.5729377946176686 -6.3611093629270335e-15 3.1805546814635168e-15 1.7655625192200634e-31 77.63445079483003 -30.17588921434852 -2.6770188178628773 -2.6752447484276813e-06 -4.920043925221985e-07 -22.795249131871394 -179.99994364051287 -82.83614453653342 171.0613739834931 6.361109362927032e-15 0.0 0.0 1.6238600738507503 -53.327412315780236 22.378456266598825 -2.005283230010907 10.326545902706151 -8.819579225992323 36.38513576549396 23.696479733673208 -59.078654722000564 -1.5902773407317584e-15 6.3611093629270335e-15 -1.5902773407317584e-15 -1.7106501161208842 -50.37815174787647 -17.754618601977498 3.5947093532418832 4.837073465683162 3.946492731699593 -35.905063352252085 36.04747736015578 65.55827887176217 -3.1805546814635168e-15 7.724336021587778e-32 -2.782985346280577e-15
-6.587900161743164 -10.326199531555176 -286.118896484375 5.8671863109548745 -39.61292380352051 -171.94275544726614 -1.538842788371447 -42.11025825154577 -0.22949590605094988 -2.858798581657657e-07 -1.349113957803852e-07 -2.1327166921604324 -70.10792274330444 -46.781407348959554 13.147049777781671 5.241865522001901e-06 -2.313033311210473e-06 11.0693993964505 -2.1618989092121725e-05 -83.86812752054537 3.4814877555420525 -6.361109362927035e-15 -1.7655625192200634e-31 3.1805546814635176e-15 77.63802200210772 -30.115209174606672 -2.599086709341242 5.0978543677749895e-06 -6.964696460636701e-07 -22.856053812805815 -179.9999946663146 -81.57754311830301 171.4157668075094 -8.827812596100317e-32 3.1805546814635168e-15 3.1805546814635168e-15 1.565628845431443 -53.31161851620653 22.270533581933368 -1.9985270290044157 10.306898123735698 -8.794489333128096 36.34605317683291 24.001688081092816 -59.259109446788095 3.3104297235376187e-31 -6.3611093629270335e-15 5.9635400277440935e-15 -1.746888222116287 -50.3728627519231 -17.771484554750607 3.592677948708253 4.842803160068997 3.9561441075025727 -36.194653480330835 36.07229941544452 66.06200928027081 -3.1805546814635176e-15 -2.2069531490250793e-32 7.951386703658794e-16
-6.609600067138672 -10.334799766540527 -286.11468505859375 5.7805613306486 -39.56648553093726 -172.0401159974837 -1.5461027096147584 -42.182280986652394 -0.2578838778144963 -5.9567921603000656e-08 4.852463594739666e-08 -2.1287698307415184 -69.92900934589247 -47.13351476631012 13.308117753613844 3.0817127208404892e-06 1.9301967250493575e-06 10.305388442084693 0.0004812001882207913 -89.58962636501384 4.493233455074729 -6.3611093629270335e-15 -3.1805546814635168e-15 4.770832022195275e-15 77.61555309107995 -29.955839186959846 -2.568199536951844 3.3875092111477753e-06 -2.100137249620543e-06 -22.940495175336643 -179.99999738481142 -77.38781340678977 172.3277296770408 0.0 0.0 -3.1805546814635168e-15 1.4797347827170166 -53.23160792729109 22.009627780428264 -2.0100741271326843 10.2568849046023 -8.732243210623922 39.4515531202511 2.9489609426071652 -15.438610063371144 1.6399735076296259e-15 0.0 0.0 -1.7972672890772057 -50.32014928068657 -17.76826623571306 3.6027449340246194 4.84983626257796 3.973710978246478 -36.61939176767832 36.00154508642133 66.79949287002661 3.1805546814635168e-15 6.3611093629270335e-15 -2.3854160110976376e-15
